<?xml version="1.0" encoding="UTF-8"?>
<svg width="316px" height="316px" viewBox="0 0 316 316" version="1.1" xmlns="http://www.w3.org/2000/svg" xmlns:xlink="http://www.w3.org/1999/xlink">
    <!-- Generator: Sketch 63.1 (92452) - https://sketch.com -->
    <title>Artboard</title>
    <desc>Created with Sketch.</desc>
    <g id="Artboard" stroke="none" stroke-width="1" fill="none" fill-rule="evenodd">
        <g id="vector">
            <rect id="Rectangle" x="0" y="0" width="316" height="316"></rect>
            <path d="M231.378492,245.66325 C277.724328,208.166727 291.832885,148.822376 254.45877,102.710507 C217.084639,56.5986524 73.3318783,24.7013766 35.1922517,55.5585758 C-2.9473748,86.415775 49.2514888,192.385534 86.6255963,238.497408 C123.999734,284.609258 185.032638,283.159751 231.378492,245.66325 Z" id="Oval" fill="#989898" opacity="0.1"></path>
            <g id="symbol" transform="translate(66.827981, 83.759496)">
                <path d="M23.5299358,16.5970603 C23.5299358,58.0448499 57.4957009,91.6974497 99.3258427,91.6974497 C140.737196,91.6974497 174.441638,58.7142716 175.111586,17.8381216 L175.12175,16.5970603 L187.553826,16.5970603 C187.553826,64.8421718 148.023026,104.008244 99.3258427,104.008244 C51.1151266,104.008244 11.8893821,65.6218243 11.1096882,18.0416672 L11.0978595,16.5970603 L23.5299358,16.5970603 Z" id="Path" fill="#383838" fill-rule="nonzero"></path>
                <polygon id="Path" fill="#383838" fill-rule="nonzero" points="168.687465 91.8370668 168.687465 104.008244 109.868809 104.008244 109.868809 91.8370668"></polygon>
                <polygon id="Path" fill="#383838" fill-rule="nonzero" points="87.6730902 91.8370668 87.6730902 104.008244 28.8544347 104.008244 28.8544347 91.8370668"></polygon>
                <rect id="Rectangle" fill="#F6C750" x="87.6730902" y="86.3047133" width="23.305505" height="23.2358844"></rect>
                <rect id="Rectangle" fill="#F6C750" x="168.687465" y="5.53235342" width="23.305505" height="23.2358844"></rect>
                <rect id="Rectangle" fill="#F6C750" x="5.54892976" y="5.53235342" width="23.305505" height="23.2358844"></rect>
                <path d="M115.417739,80.7723599 L82.1241604,80.7723599 L82.1241604,113.96648 L115.417739,113.96648 L115.417739,80.7723599 Z M105.571725,90.5862748 L105.571725,104.150762 L91.9687365,104.150762 L91.9687365,90.5862748 L105.571725,90.5862748 Z" id="Rectangle-Copy-3" fill="#383838" fill-rule="nonzero"></path>
                <path d="M197.541899,6.28955765e-14 L164.248321,6.28955765e-14 L164.248321,33.1941205 L197.541899,33.1941205 L197.541899,6.28955765e-14 Z M187.694872,9.81522764 L187.694872,23.3775801 L174.091883,23.3775801 L174.091883,9.81522764 L187.694872,9.81522764 Z" id="Rectangle-Copy-2" fill="#383838" fill-rule="nonzero"></path>
                <path d="M33.2935786,6.28955765e-14 L0,6.28955765e-14 L0,33.1941205 L33.2935786,33.1941205 L33.2935786,6.28955765e-14 Z M23.4485788,9.81522764 L23.4485788,23.3775801 L9.84344851,23.3775801 L9.84344851,9.81522764 L23.4485788,9.81522764 Z" id="Rectangle-Copy" fill="#383838" fill-rule="nonzero"></path>
                <ellipse id="Oval" fill="#F6C750" cx="180.340217" cy="97.9226555" rx="11.6527525" ry="11.6179422"></ellipse>
                <path d="M180.89511,80.7723599 C171.701342,80.7723599 164.248321,88.2031169 164.248321,97.3694202 C164.248321,106.535723 171.701342,113.96648 180.89511,113.96648 C190.088878,113.96648 197.541899,106.535723 197.541899,97.3694202 C197.541899,88.2031169 190.088878,80.7723599 180.89511,80.7723599 Z M180.89511,90.587704 C184.651771,90.587704 187.697146,93.6239818 187.697146,97.3694202 C187.697146,101.114859 184.651771,104.151136 180.89511,104.151136 C177.138449,104.151136 174.093074,101.114859 174.093074,97.3694202 C174.093074,93.6239818 177.138449,90.587704 180.89511,90.587704 Z" id="Oval-Copy-2" fill="#383838" fill-rule="nonzero"></path>
                <ellipse id="Oval" fill="#F6C750" cx="17.2016823" cy="97.9226555" rx="11.6527525" ry="11.6179422"></ellipse>
                <path d="M16.6467893,80.7723599 C7.45302143,80.7723599 0,88.2031169 0,97.3694202 C0,106.535723 7.45302143,113.96648 16.6467893,113.96648 C25.8405571,113.96648 33.2935786,106.535723 33.2935786,97.3694202 C33.2935786,88.2031169 25.8405571,80.7723599 16.6467893,80.7723599 Z M16.6467893,90.587704 C20.40345,90.587704 23.4488252,93.6239818 23.4488252,97.3694202 C23.4488252,101.114859 20.40345,104.151136 16.6467893,104.151136 C12.8901286,104.151136 9.84475333,101.114859 9.84475333,97.3694202 C9.84475333,93.6239818 12.8901286,90.587704 16.6467893,90.587704 Z" id="Oval-Copy" fill="#383838" fill-rule="nonzero"></path>
            </g>
        </g>
    </g>
</svg>