<?xml version="1.0" standalone="no"?><!DOCTYPE svg PUBLIC "-//W3C//DTD SVG 1.1//EN" "http://www.w3.org/Graphics/SVG/1.1/DTD/svg11.dtd">
<svg version="1.1" id="Livello_1" xmlns="http://www.w3.org/2000/svg" xmlns:xlink="http://www.w3.org/1999/xlink" x="0px" y="0px"
	 width="30px" height="30px" viewBox="3.939 3.984 32.188 32.188" enable-background="new 3.939 3.984 32.188 32.188"
	 xml:space="preserve">
	<path d="M12,0c-6.627,0 -12,5.373 -12,12c0,6.627 5.373,12 12,12c6.627,0 12,-5.373 12,-12c0,-6.627 -5.373,-12 -12,-12ZM10,16l-2,0l0,-6l2,0l0,6ZM9,9.109c-0.607,0 -1.1,-0.496 -1.1,-1.109c0,-0.612 0.492,-1.109 1.1,-1.109c0.608,0 1.1,0.497 1.1,1.109c0,0.613 -0.493,1.109 -1.1,1.109ZM17,16l-1.998,0l0,-2.861c0,-1.881 -2.002,-1.722 -2.002,0l0,2.861l-2,0l0,-6l2,0l0,1.093c0.872,-1.616 4,-1.736 4,1.548l0,3.359Z" style="fill:#fff;fill-rule:nonzero;"/>
</svg>